<svg width="40" height="40" viewBox="0 0 40 40" fill="none" xmlns="http://www.w3.org/2000/svg">
<g clip-path="url(#clip0_1715_92994)">
<path d="M7.08333 0H32.9167C36.8333 0 40 3.16667 40 7.08333V32.9167C40 36.8333 36.8333 40 32.9167 40H7.08333C3.16667 40 0 36.8333 0 32.9167V7.08333C0 3.16667 3.16667 0 7.08333 0Z" fill="#00005B"/>
<path d="M16.0665 23.3333H9.8665L8.59983 27.2666C8.5665 27.4166 8.43317 27.5166 8.28317 27.4999H5.14983C4.9665 27.4999 4.9165 27.3999 4.9665 27.1999L10.3332 11.8166C10.3832 11.6499 10.4332 11.4999 10.4998 11.2999C10.5665 10.9499 10.5998 10.5833 10.5998 10.2166C10.5832 10.1333 10.6498 10.0499 10.7332 10.0333C10.7498 10.0333 10.7665 10.0333 10.7832 10.0333H15.0498C15.1665 10.0333 15.2498 10.0833 15.2665 10.1666L21.3498 27.2499C21.3998 27.4333 21.3498 27.5166 21.1832 27.5166H17.6998C17.5832 27.5333 17.4665 27.4499 17.4332 27.3333L16.0665 23.3333ZM10.8332 20.0166H15.0665C14.9665 19.6666 14.8332 19.2499 14.6832 18.8166C14.5332 18.3666 14.3832 17.8833 14.2332 17.3833C14.0665 16.8666 13.9165 16.3666 13.7498 15.8499C13.5832 15.3333 13.4332 14.8499 13.2998 14.3666C13.1665 13.8999 13.0498 13.4666 12.9332 13.0666H12.8998C12.7498 13.7833 12.5665 14.4999 12.3332 15.2166C12.0832 16.0166 11.8332 16.8499 11.5665 17.6833C11.3498 18.5333 11.0832 19.3166 10.8332 20.0166Z" fill="#9999FF"/>
<path d="M31.2331 21.8H25.9498C26.0164 22.3167 26.1831 22.8334 26.4664 23.2834C26.7664 23.7334 27.1831 24.0834 27.6831 24.2834C28.3498 24.5667 29.0831 24.7167 29.8164 24.7C30.3998 24.6834 30.9831 24.6334 31.5498 24.5167C32.0664 24.45 32.5664 24.3167 33.0331 24.1334C33.1164 24.0667 33.1664 24.1 33.1664 24.2667V26.8167C33.1664 26.8834 33.1498 26.95 33.1331 27.0167C33.0998 27.0667 33.0664 27.1 33.0164 27.1334C32.4831 27.3667 31.9331 27.5334 31.3498 27.6334C30.5664 27.7834 29.7831 27.85 28.9831 27.8334C27.7164 27.8334 26.6498 27.6334 25.7831 27.25C24.9664 26.9 24.2498 26.35 23.6831 25.6667C23.1498 25.0167 22.7664 24.2834 22.5331 23.4834C22.2998 22.7 22.1831 21.8834 22.1831 21.05C22.1831 20.15 22.3164 19.2667 22.5998 18.4C22.8664 17.5667 23.2831 16.8 23.8498 16.1167C24.3998 15.45 25.0831 14.9167 25.8664 14.5334C26.6498 14.15 27.5831 14.0167 28.6498 14.0167C29.5331 14 30.4164 14.1667 31.2331 14.5334C31.9164 14.8334 32.5164 15.2834 32.9831 15.8667C33.4164 16.4334 33.7664 17.0667 33.9831 17.7667C34.1998 18.4334 34.2998 19.1167 34.2998 19.8C34.2998 20.2 34.2831 20.55 34.2664 20.8667C34.2331 21.1834 34.2164 21.4167 34.1998 21.5667C34.1831 21.6834 34.0831 21.7834 33.9664 21.7834C33.8664 21.7834 33.6831 21.8 33.4164 21.8167C33.1498 21.85 32.8331 21.8667 32.4498 21.8667C32.0664 21.8667 31.6664 21.8 31.2331 21.8ZM25.9498 19.3667H29.4664C29.8998 19.3667 30.2164 19.3667 30.4164 19.35C30.5498 19.3334 30.6831 19.3 30.7998 19.2167V19.05C30.7998 18.8334 30.7664 18.6334 30.6998 18.4334C30.3998 17.5 29.5164 16.8667 28.5331 16.9C27.6164 16.85 26.7498 17.3334 26.3164 18.1667C26.1164 18.55 25.9998 18.95 25.9498 19.3667Z" fill="#9999FF"/>
</g>
<defs>
<clipPath id="clip0_1715_92994">
<rect width="40" height="40" fill="white"/>
</clipPath>
</defs>
</svg>
